<svg xmlns="http://www.w3.org/2000/svg" width="150" height="48" viewBox="0 0 150 48" fill="none"><path d="M18.7228 44.4793C18.7229 44.7332 18.6728 44.9846 18.5754 45.219C18.4724 45.4616 18.3221 45.6813 18.1333 45.8652C17.9294 46.0646 17.6888 46.2224 17.4247 46.33C17.1192 46.4514 16.7927 46.5111 16.464 46.5057C16.1213 46.5096 15.7799 46.4657 15.4494 46.3753C15.1528 46.2917 14.8673 46.1728 14.5991 46.021L14.925 45.2417C15.0353 45.3163 15.1498 45.3844 15.268 45.4457C15.4081 45.5192 15.5519 45.5854 15.6988 45.6441C15.8524 45.707 16.0107 45.7581 16.1721 45.7971C16.3256 45.838 16.4837 45.859 16.6425 45.8595C16.8238 45.8627 17.0048 45.8427 17.181 45.8C17.31 45.7708 17.4341 45.723 17.5494 45.6583C17.6026 45.6259 17.6529 45.5889 17.6996 45.5477C17.7523 45.4972 17.7955 45.4377 17.8272 45.372C17.8687 45.2818 17.8983 45.1865 17.915 45.0886C17.9372 44.9556 17.9476 44.821 17.9462 44.6862C17.9526 44.505 17.9063 44.3258 17.813 44.1704C17.7221 44.0256 17.6013 43.9019 17.4587 43.8076C17.3009 43.7029 17.1328 43.6146 16.9571 43.544L16.3903 43.3088C16.1947 43.2294 16.0048 43.1387 15.8235 43.0424C15.6388 42.9464 15.4697 42.8232 15.3218 42.6768C15.1698 42.527 15.0485 42.3488 14.9647 42.1525C14.8701 41.9147 14.8248 41.6601 14.8315 41.4043C14.8334 41.1911 14.8828 40.981 14.9761 40.7893C15.074 40.5742 15.2148 40.3813 15.3898 40.2225C15.5832 40.0451 15.8081 39.9057 16.053 39.8115C16.3383 39.7007 16.6426 39.6468 16.9486 39.6528C17.2016 39.6513 17.4543 39.6665 17.7053 39.6981C17.9405 39.7265 18.1758 39.7662 18.4082 39.8143L18.2069 40.6022C17.9522 40.5142 17.693 40.4394 17.4304 40.3783C17.1835 40.3187 16.9305 40.2874 16.6765 40.2848C16.5151 40.2826 16.3539 40.2949 16.1947 40.3216C16.0809 40.3388 15.9719 40.3793 15.8745 40.4407C15.7874 40.5113 15.7184 40.6017 15.6732 40.7042C15.6071 40.8707 15.578 41.0497 15.5882 41.2286C15.5835 41.3962 15.6299 41.5613 15.7214 41.7019C15.8165 41.8354 15.9369 41.949 16.0757 42.0363C16.2343 42.138 16.4023 42.2243 16.5773 42.2942L17.1442 42.5294C17.3381 42.6136 17.5273 42.7082 17.711 42.8128C17.8953 42.9128 18.0642 43.0388 18.2126 43.1869C18.364 43.341 18.4843 43.5229 18.5669 43.7226C18.6705 43.9613 18.7236 44.219 18.7228 44.4793Z" fill="#E5E5EA"></path><path d="M22.3248 46.4064V40.2507L20.2729 40.2167L20.3381 39.7349H25.2808L25.2185 40.1968L23.2346 40.2507V46.4064H22.3248Z" fill="#E5E5EA"></path><path d="M32.2133 45.0006C32.097 45.2945 31.9181 45.5595 31.689 45.7772C31.439 46.0089 31.1451 46.1881 30.8246 46.3043C30.443 46.4413 30.0396 46.5075 29.6343 46.4999C29.293 46.5036 28.9527 46.4616 28.6225 46.3752C28.3392 46.3005 28.0759 46.1641 27.8516 45.9756C27.6285 45.7776 27.4581 45.5274 27.3557 45.2472C27.2312 44.8943 27.1726 44.5216 27.1828 44.1476V39.7349H28.0642V44.2694C28.0564 44.549 28.0918 44.8282 28.169 45.097C28.2288 45.2927 28.337 45.4701 28.4836 45.6128C28.626 45.7502 28.8019 45.8479 28.9938 45.8962C29.2269 45.9504 29.4658 45.9761 29.7051 45.9727C30.001 45.9762 30.2961 45.9429 30.5837 45.8735C30.8039 45.8264 31.0069 45.7195 31.1704 45.5646C31.2998 45.4123 31.3894 45.2302 31.4311 45.0347C31.4914 44.7784 31.52 44.5157 31.5161 44.2524V39.7349H32.389V44.0541C32.3911 44.3779 32.3314 44.6991 32.2133 45.0006Z" fill="#E5E5EA"></path><path d="M35.0246 39.7888L35.5206 39.7378C35.7076 39.7237 35.9004 39.7095 36.1044 39.701L36.7194 39.6726H37.3259C37.794 39.6675 38.2602 39.7324 38.709 39.8654C39.1022 39.9807 39.4658 40.1798 39.7746 40.4492C40.0781 40.7179 40.3132 41.055 40.4604 41.4326C40.629 41.8748 40.7108 42.3454 40.7013 42.8185C40.7065 43.3193 40.6319 43.8177 40.4803 44.2951C40.3407 44.7218 40.1106 45.1133 39.8058 45.4429C39.4989 45.7731 39.1223 46.0306 38.7033 46.1968C38.2155 46.3852 37.6957 46.4766 37.1729 46.466C36.7874 46.466 36.402 46.466 36.0194 46.4348C35.6368 46.4037 35.3024 46.3867 35.0161 46.3555L35.0246 39.7888ZM35.9315 45.919C36.0647 45.9417 36.2149 45.9587 36.385 45.9757C36.555 45.9927 36.7421 45.9984 36.9518 45.9984C37.3322 46.0049 37.7123 45.9707 38.0855 45.8964C38.379 45.8411 38.6585 45.7273 38.9073 45.5619C39.0227 45.4743 39.1265 45.3724 39.2163 45.2587C39.3314 45.1054 39.4223 44.9352 39.4855 44.7542C39.5735 44.5067 39.638 44.2514 39.6782 43.9918C39.7323 43.6355 39.7569 43.2753 39.7519 42.9149C39.7655 42.4685 39.6883 42.024 39.5252 41.6083C39.3901 41.2826 39.1827 40.9918 38.9187 40.7581C38.6662 40.5392 38.3679 40.3794 38.0458 40.2905C37.7128 40.197 37.3685 40.1502 37.0227 40.1516H36.6429L36.3595 40.1686L36.1413 40.1913L35.9174 40.2168L35.9315 45.919Z" fill="#E5E5EA"></path><path d="M45.5533 46.4066H44.6719V43.8559L42.3848 39.7437H43.3965L45.2671 43.2948L47.0185 39.7437H47.6505L45.5533 43.8559V46.4066Z" fill="#E5E5EA"></path><path d="M58.1821 46.4064V39.7349H59.0777V46.4064H58.1821Z" fill="#E5E5EA"></path><path d="M67.0131 46.4403L62.3028 41.2397H62.2829C62.2829 41.7328 62.2999 42.1778 62.3084 42.5831C62.3084 42.756 62.3084 42.9288 62.3084 43.1017C62.3084 43.2746 62.3084 43.4305 62.3084 43.5722C62.3084 43.7139 62.3084 43.8414 62.3084 43.9434C62.3084 44.0455 62.3084 44.122 62.3084 44.1588V46.4063H61.7104V39.6895H62.1072L66.826 44.8759C66.826 44.4196 66.8118 43.9973 66.8062 43.6062C66.8062 43.4418 66.8062 43.2746 66.8062 43.1046C66.8062 42.9345 66.8062 42.7758 66.8062 42.6256C66.8062 42.4754 66.8062 42.3422 66.8062 42.2231V39.7405H67.407V46.4403H67.0131Z" fill="#E5E5EA"></path><path d="M74.504 39.7349H75.136L72.7327 46.4064H71.8541L69.2808 39.7349H70.2897L71.6246 43.3455C71.7247 43.6157 71.8239 43.8934 71.9222 44.1788C72.0185 44.4622 72.1064 44.7286 72.1857 44.9695C72.2651 45.2104 72.3643 45.5193 72.4465 45.7914L72.7299 44.91C72.8092 44.6577 72.8942 44.3885 72.9878 44.1051C73.0813 43.8216 73.1692 43.5609 73.2514 43.3257L74.504 39.7349Z" fill="#E5E5EA"></path><path d="M80.5687 46.4064H77.0034V39.7349H80.427L80.3618 40.2167L77.9103 40.2507V42.6143L80.2173 42.6427L80.1521 43.0649L77.9103 43.116V45.8962L80.6339 45.9472L80.5687 46.4064Z" fill="#E5E5EA"></path><path d="M86.4947 44.4793C86.4949 44.7332 86.4448 44.9846 86.3473 45.219C86.2452 45.4621 86.0948 45.6819 85.9052 45.8652C85.7014 46.0646 85.4608 46.2224 85.1967 46.33C84.8912 46.4514 84.5646 46.5111 84.2359 46.5057C83.8933 46.5096 83.5518 46.4657 83.2213 46.3753C82.9296 46.2907 82.649 46.1718 82.3853 46.021L82.7112 45.2417C82.822 45.3169 82.9375 45.385 83.0569 45.4457C83.1958 45.5197 83.3387 45.5859 83.4849 45.6441C83.6386 45.707 83.7968 45.7581 83.9582 45.7971C84.1117 45.838 84.2698 45.859 84.4287 45.8595C84.6099 45.8627 84.7909 45.8427 84.9671 45.8C85.0961 45.7708 85.2202 45.723 85.3356 45.6583C85.3892 45.6266 85.4395 45.5895 85.4858 45.5477C85.5384 45.4972 85.5816 45.4377 85.6133 45.372C85.6549 45.2818 85.6844 45.1865 85.7012 45.0886C85.7233 44.9556 85.7338 44.821 85.7323 44.6862C85.7387 44.505 85.6924 44.3258 85.5991 44.1704C85.5083 44.0256 85.3875 43.9019 85.2449 43.8076C85.0871 43.7029 84.919 43.6146 84.7432 43.544L84.1764 43.3088C83.9809 43.2294 83.791 43.1387 83.6096 43.0424C83.425 42.9464 83.2559 42.8232 83.108 42.6768C82.9559 42.527 82.8346 42.3488 82.7509 42.1525C82.6563 41.9147 82.6109 41.6601 82.6177 41.4043C82.6195 41.1911 82.6689 40.981 82.7622 40.7893C82.8601 40.5742 83.0009 40.3813 83.176 40.2225C83.3693 40.0451 83.5943 39.9057 83.8392 39.8115C84.1245 39.7007 84.4287 39.6468 84.7347 39.6528C84.9877 39.6513 85.2405 39.6665 85.4914 39.6981C85.7267 39.7265 85.9619 39.7662 86.1943 39.8143L85.9931 40.6022C85.7383 40.5142 85.4791 40.4394 85.2165 40.3783C84.9696 40.3187 84.7167 40.2874 84.4627 40.2848C84.3013 40.2826 84.14 40.2949 83.9809 40.3216C83.867 40.3388 83.758 40.3793 83.6606 40.4407C83.5735 40.5113 83.5046 40.6017 83.4594 40.7042C83.3932 40.8707 83.3642 41.0497 83.3744 41.2286C83.3696 41.3962 83.4161 41.5613 83.5076 41.7019C83.6027 41.8354 83.723 41.949 83.8618 42.0363C84.0205 42.138 84.1884 42.2243 84.3635 42.2942L84.9303 42.5294C85.1245 42.613 85.3137 42.7076 85.4971 42.8128C85.6814 42.9128 85.8503 43.0388 85.9987 43.1869C86.1502 43.341 86.2704 43.5229 86.353 43.7226C86.4518 43.9624 86.5 44.22 86.4947 44.4793Z" fill="#E5E5EA"></path><path d="M90.0973 46.4064V40.2507L88.0454 40.2167L88.1106 39.7349H93.0561L92.9909 40.1968L91.0071 40.2507V46.4064H90.0973Z" fill="#E5E5EA"></path><path d="M107.717 42.9689C107.683 42.8725 107.643 42.7507 107.601 42.6061C107.558 42.4616 107.51 42.3227 107.465 42.1782C107.419 42.0336 107.357 41.8522 107.3 41.6765C107.244 41.8522 107.193 42.0195 107.144 42.1867C107.096 42.3539 107.054 42.4701 107.008 42.6231C106.963 42.7762 106.918 42.9065 106.884 43.0001L105.73 46.401H104.852L102.882 39.7295H103.857L104.99 43.6604C105.024 43.7993 105.073 43.975 105.132 44.1904C105.192 44.4058 105.248 44.6183 105.302 44.8252C105.356 45.0321 105.433 45.324 105.498 45.5876C105.583 45.324 105.662 45.069 105.741 44.8252C105.77 44.7204 105.804 44.6155 105.841 44.505L105.948 44.1875C105.982 44.0827 106.016 43.9863 106.048 43.9041C106.079 43.8219 106.104 43.7341 106.124 43.6632L107.173 40.5769H107.759L108.848 43.6632C108.87 43.7341 108.896 43.8134 108.93 43.9041C108.964 43.9948 108.995 44.094 109.032 44.1875C109.069 44.2811 109.1 44.3973 109.137 44.505C109.174 44.6127 109.21 44.7204 109.247 44.8252C109.324 45.069 109.409 45.324 109.499 45.5876C109.57 45.324 109.636 45.069 109.695 44.8252C109.721 44.7204 109.749 44.6155 109.777 44.505C109.806 44.3944 109.831 44.2896 109.857 44.1875C109.882 44.0855 109.91 43.9863 109.933 43.9041C109.956 43.8219 109.978 43.7341 110.001 43.6632L111.084 39.7408H111.702L109.808 46.4067H108.927L107.717 42.9689Z" fill="#E5E5EA"></path><path d="M119.787 43.0452C119.794 43.5308 119.725 44.0146 119.583 44.4792C119.46 44.8812 119.252 45.2522 118.974 45.5675C118.695 45.8746 118.347 46.1115 117.959 46.259C117.506 46.427 117.026 46.5087 116.542 46.4999C116.058 46.5129 115.576 46.4281 115.125 46.2505C114.749 46.1008 114.415 45.8603 114.153 45.5505C113.889 45.2321 113.696 44.8611 113.586 44.4622C113.462 44.0003 113.402 43.5234 113.408 43.0452C113.4 42.5666 113.461 42.0893 113.589 41.6281C113.696 41.2351 113.89 40.871 114.156 40.5625C114.421 40.2615 114.756 40.03 115.131 39.888C115.584 39.7196 116.065 39.6398 116.548 39.6527C117.031 39.6418 117.512 39.7216 117.965 39.888C118.35 40.0302 118.696 40.2613 118.974 40.5625C119.257 40.8728 119.466 41.2429 119.586 41.6451C119.726 42.0983 119.794 42.5708 119.787 43.0452ZM118.818 43.0452C118.822 42.653 118.779 42.2619 118.688 41.8803C118.613 41.5542 118.474 41.246 118.28 40.9734C118.097 40.7231 117.856 40.5216 117.577 40.3868C117.257 40.2412 116.908 40.1705 116.557 40.1799C116.234 40.1774 115.912 40.2145 115.599 40.2904C115.342 40.3452 115.101 40.4587 114.896 40.622C114.787 40.7228 114.705 40.8482 114.655 40.9876C114.583 41.1706 114.529 41.3605 114.496 41.5544C114.457 41.7871 114.429 42.0217 114.414 42.2573C114.394 42.5095 114.386 42.7759 114.386 43.048C114.383 43.4407 114.419 43.8327 114.493 44.2185C114.554 44.5476 114.675 44.8627 114.85 45.1481C115.015 45.4053 115.242 45.616 115.511 45.7602C115.831 45.9176 116.186 45.9936 116.542 45.9813C116.882 45.9871 117.221 45.9509 117.551 45.8736C117.824 45.802 118.077 45.6692 118.291 45.4853C118.4 45.3842 118.483 45.2577 118.532 45.1169C118.602 44.933 118.656 44.7434 118.693 44.5501C118.738 44.3139 118.769 44.0755 118.787 43.8359C118.807 43.5638 118.818 43.3059 118.818 43.0452Z" fill="#E5E5EA"></path><path d="M124.087 43.5922H123.149V46.4065H122.242V39.7492C122.525 39.7265 122.809 39.7095 123.149 39.6953C123.489 39.6812 123.8 39.6783 124.121 39.6783C124.461 39.6722 124.801 39.7132 125.13 39.8002C125.389 39.8682 125.63 39.9909 125.838 40.1601C126.022 40.3118 126.166 40.5065 126.258 40.727C126.352 40.9719 126.398 41.2326 126.394 41.495C126.397 41.7462 126.359 41.9961 126.28 42.2347C126.21 42.4386 126.108 42.63 125.977 42.8015C125.851 42.962 125.7 43.1008 125.529 43.2125C125.36 43.3258 125.18 43.4208 124.991 43.4959L125.558 44.4765C125.728 44.7618 125.917 45.0355 126.124 45.2955C126.286 45.5101 126.477 45.7009 126.691 45.8624C126.867 45.9969 127.082 46.0705 127.303 46.0721H127.38V46.3555C127.262 46.3976 127.139 46.4261 127.014 46.4405C126.865 46.4633 126.715 46.4747 126.564 46.4745C126.371 46.48 126.179 46.4503 125.997 46.3867C125.823 46.3119 125.67 46.1974 125.549 46.0523C125.371 45.8443 125.213 45.6193 125.079 45.3806C124.909 45.0915 124.7 44.7193 124.452 44.2639L124.087 43.5922ZM123.429 43.1303C123.761 43.1366 124.093 43.1129 124.421 43.0594C124.627 43.0292 124.825 42.96 125.005 42.8554C125.07 42.8137 125.128 42.7609 125.175 42.6995C125.232 42.624 125.277 42.5398 125.308 42.4501C125.349 42.3296 125.378 42.2052 125.393 42.0788C125.414 41.9049 125.424 41.7297 125.422 41.5545C125.428 41.3312 125.39 41.1088 125.311 40.8998C125.245 40.7271 125.134 40.5747 124.991 40.4577C124.842 40.3406 124.67 40.2566 124.486 40.2112C124.266 40.1563 124.039 40.1296 123.812 40.1318C123.687 40.1318 123.579 40.1318 123.486 40.1318L123.149 40.1601V43.119L123.429 43.1303Z" fill="#E5E5EA"></path><path d="M134.165 40.0554C133.908 40.0583 133.657 40.1266 133.434 40.2538C133.129 40.4345 132.85 40.6568 132.606 40.9141C132.518 41.002 132.425 41.1012 132.323 41.1975L132.005 41.5405L131.668 41.9287L131.348 42.283C131.518 42.5834 131.691 42.8838 131.866 43.1842C132.042 43.4875 132.221 43.7794 132.396 44.06C132.572 44.3406 132.756 44.6013 132.941 44.8479C133.113 45.0746 133.302 45.2878 133.507 45.4855C133.676 45.6531 133.867 45.7971 134.074 45.9135C134.247 46.0129 134.442 46.0666 134.641 46.0694H134.72V46.3528C134.583 46.3898 134.444 46.4192 134.304 46.4406C134.139 46.4631 133.974 46.4735 133.808 46.4718C133.604 46.4711 133.404 46.4205 133.224 46.3244C133.026 46.2166 132.844 46.08 132.686 45.9192C132.5 45.7341 132.331 45.5341 132.178 45.3212C132.014 45.0944 131.849 44.8479 131.691 44.5843C131.532 44.3207 131.371 44.0486 131.212 43.7681C131.053 43.4875 130.892 43.2012 130.724 42.9178C130.696 42.9547 130.651 43.0029 130.594 43.0624L130.421 43.2523L130.257 43.4336C130.203 43.4903 130.166 43.5328 130.146 43.5583V46.3925H129.239V39.7351H130.146V42.9292C130.228 42.8271 130.325 42.7109 130.43 42.5777C130.534 42.4445 130.662 42.2943 130.792 42.1498L131.186 41.6878C131.319 41.5291 131.45 41.3789 131.577 41.2344C131.705 41.0898 131.821 40.951 131.934 40.8319C132.048 40.7129 132.147 40.6052 132.218 40.523C132.356 40.3831 132.502 40.2507 132.654 40.1262C132.773 40.029 132.903 39.9471 133.043 39.8825C133.169 39.8244 133.302 39.7825 133.439 39.7578C133.596 39.7326 133.754 39.7203 133.913 39.721C133.983 39.7161 134.054 39.7161 134.125 39.721C134.175 39.7263 134.223 39.7377 134.27 39.755V40.0384L134.165 40.0554Z" fill="#E5E5EA"></path><path d="M4.52686 35.4839C49.4503 35.277 99.8465 35.2741 144.77 35.4839C99.8465 35.6936 49.4503 35.6908 4.52686 35.4839Z" fill="#E5E5EA"></path><path d="M3.01342 33.6982L3.37051 34.8007H4.52966L3.59157 35.4781L3.94867 36.5805L3.01342 35.9003L2.07816 36.5805L2.43526 35.4781L1.5 34.8007H2.65632L3.01342 33.6982Z" fill="#E5E5EA"></path><path d="M146.283 33.6982L146.641 34.8007H147.797L146.862 35.4781L147.219 36.5805L146.283 35.9003L145.348 36.5805L145.705 35.4781L144.77 34.8007H145.926L146.283 33.6982Z" fill="#E5E5EA"></path><path d="M22.0586 1.52246V5.14729H27.6191V30.8442H32.0007V5.14729H37.3486V1.52246H22.0586Z" fill="white"></path><path d="M41.1606 1.52539V30.8443H45.545V1.52539H41.1606Z" fill="white"></path><path d="M112.008 1.52246L105.591 24.1387L100.294 5.15012L99.3589 1.52529H94.8244L88.5525 24.1387L82.0085 1.52246H77.8735L86.3078 30.8413H90.3606L96.8507 7.88504L103.383 30.8413H107.541L115.808 1.52246H112.008Z" fill="white"></path><path d="M75.0819 1.52539V30.8443H70.5813L56.6517 6.06564V30.8443H53.0665V5.15022H49.4502V1.52539H58.8198L71.5506 24.0877V1.52539H75.0819Z" fill="white"></path><path d="M130.361 5.24932C132.52 5.24988 134.629 5.89046 136.424 7.09006C138.218 8.28966 139.617 9.99442 140.442 11.9888C141.268 13.9831 141.484 16.1775 141.062 18.2945C140.641 20.4114 139.601 22.3559 138.075 23.882C136.548 25.408 134.604 26.4472 132.487 26.8681C130.369 27.289 128.175 27.0727 126.181 26.2466C124.187 25.4204 122.482 24.0215 121.283 22.2268C120.084 20.432 119.444 18.322 119.444 16.1635C119.446 13.2695 120.597 10.4948 122.643 8.44849C124.69 6.40217 127.464 5.25157 130.358 5.24932H130.361ZM130.361 1.52246C127.465 1.5219 124.634 2.3801 122.226 3.98854C119.818 5.59697 117.941 7.88339 116.833 10.5586C115.724 13.2339 115.434 16.1778 115.998 19.0181C116.563 21.8583 117.957 24.4674 120.005 26.5152C122.052 28.5631 124.661 29.9578 127.501 30.523C130.341 31.0881 133.285 30.7983 135.961 29.6903C138.636 28.5822 140.923 26.7056 142.532 24.2979C144.141 21.8901 144.999 19.0593 144.999 16.1635C144.999 12.2809 143.457 8.55736 140.712 5.81172C137.967 3.06608 134.244 1.52321 130.361 1.52246Z" fill="white"></path><path d="M139.232 3.24854C141.916 3.48093 143.965 4.47004 144.9 6.23002C147.134 10.4443 142.115 17.4814 133.689 21.9423C125.263 26.4032 116.622 26.6044 114.388 22.3901C113.459 20.6301 113.793 18.3799 115.108 16.0304C113.028 19.1309 112.362 22.2031 113.601 24.5327C116.151 29.328 125.705 29.243 134.961 24.3372C144.217 19.4313 149.665 11.5837 147.125 6.76567C145.884 4.44453 142.968 3.27121 139.232 3.24854Z" fill="#E5E5EA"></path><path d="M12.3972 1.5905C10.0336 1.29008 7.98167 1.74165 6.24153 2.9452C4.50139 4.14876 3.48111 5.92385 3.18069 8.2705C2.9676 9.61502 3.15115 10.9925 3.70888 12.2343C4.26662 13.4761 5.17433 14.5284 6.32089 15.2622C7.45453 16.018 9.23152 16.889 11.6518 17.8753C13.7302 18.7255 15.1255 19.4926 15.8378 20.1766C16.5501 20.8606 16.8175 21.8657 16.6399 23.1921C16.5844 23.8217 16.3893 24.431 16.0687 24.9757C15.748 25.5204 15.31 25.9867 14.7864 26.3408C13.7129 27.0661 12.4052 27.3596 11.1247 27.1627C8.7535 26.8604 6.92361 25.4433 5.63503 22.9115V18.802H1.54541V22.8917H5.62653V28.3247C7.1168 29.6619 8.98147 30.5096 10.9688 30.7535C13.4515 31.0709 15.6338 30.5579 17.5156 29.2146C18.4328 28.5727 19.2004 27.7403 19.7658 26.7742C20.3313 25.8081 20.6813 24.7312 20.7919 23.6172C21.0253 22.0405 20.8071 20.4299 20.1627 18.9721C19.6335 17.7054 18.7596 16.6125 17.6403 15.8177C16.5974 15.1205 14.8827 14.293 12.4964 13.3351C11.2453 12.8718 10.0227 12.3353 8.83474 11.7281C8.23608 11.3825 7.74542 10.8772 7.41769 10.2685C7.06896 9.63975 6.93465 8.91445 7.03508 8.20248C7.09714 7.71627 7.26863 7.25046 7.53665 6.84008C7.80468 6.4297 8.16226 6.08543 8.58251 5.83316C9.49226 5.23233 10.7081 5.03111 12.2385 5.22383C13.3417 5.33573 14.4003 5.71777 15.3208 6.33616C16.2412 6.95456 16.995 7.79024 17.5156 8.7693V3.80961C16.0542 2.59982 14.2792 1.83022 12.3972 1.5905Z" fill="white"></path><path d="M21.6053 8.76364H17.5157V12.8533H21.6053V8.76364Z" fill="white"></path></svg>