<svg xmlns="http://www.w3.org/2000/svg" width="100" height="32" viewBox="0 0 100 32" fill="none"><path d="M12.482 29.6528C12.4821 29.8221 12.4487 29.9897 12.3837 30.146C12.3151 30.3077 12.2149 30.4542 12.089 30.5768C11.9531 30.7097 11.7927 30.8149 11.6166 30.8866C11.413 30.9675 11.1953 31.0074 10.9761 31.0038C10.7477 31.0064 10.5201 30.9771 10.2997 30.9169C10.102 30.8611 9.9117 30.7818 9.73291 30.6807L9.95019 30.1611C10.0237 30.2108 10.1 30.2563 10.1788 30.2971C10.2722 30.3461 10.3681 30.3902 10.466 30.4294C10.5685 30.4713 10.6739 30.5054 10.7815 30.5314C10.8839 30.5586 10.9893 30.5726 11.0952 30.573C11.216 30.5751 11.3367 30.5618 11.4542 30.5333C11.5402 30.5138 11.6229 30.482 11.6998 30.4388C11.7352 30.4172 11.7687 30.3926 11.7999 30.3651C11.835 30.3315 11.8638 30.2918 11.8849 30.248C11.9127 30.1879 11.9324 30.1243 11.9435 30.0591C11.9583 29.9704 11.9653 29.8806 11.9643 29.7908C11.9686 29.67 11.9377 29.5505 11.8755 29.4469C11.8149 29.3504 11.7344 29.2679 11.6393 29.205C11.5341 29.1353 11.4221 29.0764 11.3049 29.0293L10.927 28.8725C10.7966 28.8196 10.6701 28.7591 10.5491 28.6949C10.4261 28.6309 10.3133 28.5488 10.2147 28.4512C10.1133 28.3513 10.0325 28.2325 9.97664 28.1016C9.91358 27.9431 9.88337 27.7734 9.88784 27.6028C9.88908 27.4607 9.922 27.3206 9.9842 27.1928C10.0495 27.0494 10.1434 26.9208 10.2601 26.8149C10.3889 26.6967 10.5389 26.6038 10.7022 26.541C10.8924 26.4671 11.0952 26.4312 11.2992 26.4352C11.4679 26.4342 11.6364 26.4443 11.8037 26.4654C11.9605 26.4843 12.1173 26.5108 12.2723 26.5429L12.1381 27.0681C11.9683 27.0094 11.7955 26.9596 11.6204 26.9189C11.4558 26.8791 11.2872 26.8582 11.1178 26.8565C11.0103 26.855 10.9028 26.8633 10.7966 26.8811C10.7208 26.8925 10.6481 26.9195 10.5831 26.9604C10.5251 27.0075 10.4791 27.0678 10.449 27.1361C10.4049 27.2471 10.3855 27.3664 10.3923 27.4857C10.3891 27.5974 10.4201 27.7075 10.4811 27.8012C10.5445 27.8902 10.6248 27.966 10.7173 28.0242C10.8231 28.092 10.935 28.1495 11.0517 28.1961L11.4296 28.3529C11.5589 28.409 11.685 28.4721 11.8075 28.5419C11.9303 28.6085 12.043 28.6925 12.1419 28.7913C12.2429 28.894 12.323 29.0153 12.3781 29.1484C12.4472 29.3075 12.4826 29.4793 12.482 29.6528Z" fill="#8E8E93"></path><path d="M14.8836 30.9377V26.8339L13.5156 26.8112L13.5591 26.49H16.8542L16.8126 26.798L15.4901 26.8339V30.9377H14.8836Z" fill="#8E8E93"></path><path d="M21.4755 30.0005C21.398 30.1964 21.2787 30.3731 21.126 30.5182C20.9593 30.6727 20.7634 30.7922 20.5497 30.8696C20.2953 30.9609 20.0264 31.0051 19.7562 31C19.5286 31.0025 19.3018 30.9745 19.0817 30.9169C18.8928 30.8671 18.7173 30.7761 18.5678 30.6505C18.419 30.5185 18.3054 30.3516 18.2371 30.1649C18.1541 29.9296 18.1151 29.6812 18.1219 29.4318V26.49H18.7095V29.513C18.7043 29.6994 18.7279 29.8855 18.7794 30.0647C18.8192 30.1952 18.8914 30.3135 18.9891 30.4086C19.084 30.5002 19.2013 30.5653 19.3292 30.5976C19.4846 30.6337 19.6439 30.6508 19.8034 30.6486C20.0006 30.6509 20.1974 30.6287 20.3891 30.5824C20.5359 30.551 20.6712 30.4797 20.7802 30.3765C20.8665 30.2749 20.9263 30.1535 20.9541 30.0232C20.9943 29.8523 21.0133 29.6772 21.0108 29.5017V26.49H21.5927V29.3694C21.5941 29.5853 21.5543 29.7995 21.4755 30.0005Z" fill="#8E8E93"></path><path d="M23.3499 26.5259L23.6806 26.4919C23.8053 26.4824 23.9337 26.473 24.0698 26.4673L24.4798 26.4484H24.8841C25.1961 26.445 25.5069 26.4883 25.8061 26.5769C26.0683 26.6538 26.3107 26.7866 26.5166 26.9661C26.7189 27.1452 26.8756 27.37 26.9738 27.6218C27.0862 27.9166 27.1407 28.2302 27.1344 28.5457C27.1378 28.8795 27.0881 29.2118 26.987 29.5301C26.894 29.8145 26.7406 30.0755 26.5373 30.2953C26.3328 30.5154 26.0817 30.6871 25.8024 30.7978C25.4772 30.9234 25.1306 30.9844 24.7821 30.9773C24.5251 30.9773 24.2682 30.9773 24.0131 30.9566C23.758 30.9358 23.5351 30.9244 23.3442 30.9037L23.3499 26.5259ZM23.9545 30.6127C24.0433 30.6278 24.1435 30.6391 24.2568 30.6505C24.3702 30.6618 24.4949 30.6656 24.6347 30.6656C24.8883 30.67 25.1417 30.6472 25.3905 30.5976C25.5862 30.5607 25.7725 30.4849 25.9384 30.3746C26.0153 30.3162 26.0845 30.2483 26.1443 30.1725C26.2211 30.0703 26.2817 29.9568 26.3238 29.8361C26.3825 29.6711 26.4255 29.501 26.4523 29.3279C26.4883 29.0903 26.5048 28.8502 26.5014 28.6099C26.5105 28.3123 26.4591 28.016 26.3503 27.7389C26.2603 27.5217 26.122 27.3279 25.9459 27.1721C25.7776 27.0261 25.5788 26.9196 25.364 26.8603C25.142 26.798 24.9125 26.7668 24.6819 26.7677H24.4288L24.2398 26.7791L24.0943 26.7942L23.9451 26.8112L23.9545 30.6127Z" fill="#8E8E93"></path><path d="M30.3692 30.9377H29.7816V29.2372L28.2568 26.4957H28.9314L30.1784 28.8631L31.346 26.4957H31.7674L30.3692 29.2372V30.9377Z" fill="#8E8E93"></path><path d="M38.7881 30.9377V26.49H39.3851V30.9377H38.7881Z" fill="#8E8E93"></path><path d="M44.6757 30.9603L41.5355 27.4933H41.5223C41.5223 27.822 41.5336 28.1187 41.5393 28.3889C41.5393 28.5041 41.5393 28.6194 41.5393 28.7346C41.5393 28.8499 41.5393 28.9538 41.5393 29.0483C41.5393 29.1427 41.5393 29.2278 41.5393 29.2958C41.5393 29.3638 41.5393 29.4148 41.5393 29.4394V30.9377H41.1406V26.4598H41.4051L44.551 29.9174C44.551 29.6132 44.5416 29.3317 44.5378 29.0709C44.5378 28.9614 44.5378 28.8499 44.5378 28.7365C44.5378 28.6231 44.5378 28.5173 44.5378 28.4172C44.5378 28.3171 44.5378 28.2283 44.5378 28.1489V26.4938H44.9383V30.9603H44.6757Z" fill="#8E8E93"></path><path d="M49.6692 26.49H50.0905L48.4883 30.9377H47.9026L46.187 26.49H46.8596L47.7495 28.8971C47.8163 29.0772 47.8824 29.2624 47.9479 29.4526C48.0122 29.6415 48.0708 29.8191 48.1237 29.9797C48.1766 30.1403 48.2427 30.3463 48.2975 30.5277L48.4864 29.94C48.5393 29.7719 48.596 29.5924 48.6584 29.4035C48.7207 29.2145 48.7793 29.0407 48.8341 28.8839L49.6692 26.49Z" fill="#8E8E93"></path><path d="M53.7128 30.9377H51.3359V26.49H53.6183L53.5749 26.8112L51.9405 26.8339V28.4096L53.4785 28.4285L53.4351 28.71L51.9405 28.7441V30.5976L53.7563 30.6316L53.7128 30.9377Z" fill="#8E8E93"></path><path d="M57.6635 29.6528C57.6636 29.8221 57.6302 29.9897 57.5652 30.146C57.4972 30.308 57.3969 30.4546 57.2705 30.5768C57.1346 30.7097 56.9742 30.8149 56.7981 30.8866C56.5944 30.9675 56.3768 31.0074 56.1576 31.0038C55.9292 31.0064 55.7015 30.9771 55.4812 30.9169C55.2867 30.8604 55.0996 30.7811 54.9238 30.6807L55.1411 30.1611C55.215 30.2112 55.292 30.2567 55.3716 30.2971C55.4642 30.3465 55.5594 30.3906 55.6569 30.4294C55.7594 30.4713 55.8649 30.5054 55.9725 30.5314C56.0748 30.5586 56.1802 30.5726 56.2861 30.573C56.407 30.5751 56.5276 30.5618 56.6451 30.5333C56.7311 30.5138 56.8138 30.482 56.8907 30.4388C56.9265 30.4177 56.96 30.393 56.9908 30.3651C57.0259 30.3315 57.0547 30.2918 57.0759 30.248C57.1036 30.1879 57.1233 30.1243 57.1344 30.0591C57.1492 29.9704 57.1562 29.8806 57.1552 29.7908C57.1595 29.67 57.1286 29.5505 57.0664 29.4469C57.0058 29.3504 56.9253 29.2679 56.8302 29.205C56.725 29.1353 56.613 29.0764 56.4958 29.0293L56.1179 28.8725C55.9876 28.8196 55.861 28.7591 55.7401 28.6949C55.617 28.6309 55.5042 28.5488 55.4056 28.4512C55.3043 28.3513 55.2234 28.2325 55.1676 28.1016C55.1045 27.9431 55.0743 27.7734 55.0788 27.6028C55.08 27.4607 55.1129 27.3206 55.1751 27.1928C55.2404 27.0494 55.3343 26.9208 55.451 26.8149C55.5799 26.6967 55.7298 26.6038 55.8931 26.541C56.0833 26.4671 56.2861 26.4312 56.4901 26.4352C56.6588 26.4342 56.8273 26.4443 56.9946 26.4654C57.1514 26.4843 57.3083 26.5108 57.4632 26.5429L57.329 27.0681C57.1592 27.0094 56.9864 26.9596 56.8113 26.9189C56.6467 26.8791 56.4781 26.8582 56.3088 26.8565C56.2012 26.855 56.0937 26.8633 55.9876 26.8811C55.9117 26.8925 55.839 26.9195 55.7741 26.9604C55.716 27.0075 55.67 27.0678 55.6399 27.1361C55.5958 27.2471 55.5764 27.3664 55.5832 27.4857C55.5801 27.5974 55.611 27.7075 55.672 27.8012C55.7355 27.8902 55.8157 27.966 55.9082 28.0242C56.014 28.092 56.126 28.1495 56.2426 28.1961L56.6205 28.3529C56.75 28.4087 56.8761 28.4717 56.9984 28.5419C57.1213 28.6085 57.2339 28.6925 57.3328 28.7913C57.4338 28.894 57.514 29.0153 57.569 29.1484C57.6349 29.3082 57.667 29.48 57.6635 29.6528Z" fill="#8E8E93"></path><path d="M60.0647 30.9377V26.8339L58.6968 26.8112L58.7402 26.49H62.0373L61.9938 26.798L60.6712 26.8339V30.9377H60.0647Z" fill="#8E8E93"></path><path d="M71.8112 28.6458C71.7885 28.5816 71.7621 28.5003 71.7338 28.404C71.7054 28.3076 71.6733 28.215 71.6431 28.1187C71.6128 28.0223 71.5713 27.9014 71.5335 27.7842C71.4957 27.9014 71.4617 28.0128 71.4296 28.1243C71.3974 28.2358 71.3691 28.3133 71.3389 28.4153C71.3086 28.5173 71.2784 28.6042 71.2557 28.6666L70.4867 30.9339H69.901L68.5879 26.4862H69.2378L69.9936 29.1068C70.0163 29.1994 70.0484 29.3165 70.0881 29.4601C70.1278 29.6037 70.1655 29.7454 70.2014 29.8834C70.2373 30.0213 70.2884 30.2159 70.3318 30.3916C70.3885 30.2159 70.4414 30.0458 70.4943 29.8834C70.5132 29.8135 70.5359 29.7435 70.5604 29.6699L70.6322 29.4582C70.6549 29.3883 70.6776 29.3241 70.6984 29.2693C70.7191 29.2145 70.7361 29.1559 70.7494 29.1087L71.4485 27.0511H71.8396L72.5651 29.1087C72.5802 29.1559 72.5972 29.2088 72.6199 29.2693C72.6426 29.3298 72.6633 29.3959 72.6879 29.4582C72.7125 29.5206 72.7333 29.5981 72.7578 29.6699C72.7824 29.7417 72.8069 29.8135 72.8315 29.8834C72.8825 30.0458 72.9392 30.2159 72.9997 30.3916C73.0469 30.2159 73.0903 30.0458 73.13 29.8834C73.147 29.8135 73.1659 29.7435 73.1848 29.6699C73.2037 29.5962 73.2207 29.5263 73.2377 29.4582C73.2547 29.3902 73.2736 29.3241 73.2887 29.2693C73.3039 29.2145 73.319 29.1559 73.3341 29.1087L74.0558 26.4938H74.4677L73.2056 30.9376H72.618L71.8112 28.6458Z" fill="#8E8E93"></path><path d="M79.858 28.6968C79.8623 29.0206 79.8164 29.3431 79.7219 29.6528C79.6396 29.9208 79.5011 30.1681 79.3157 30.3784C79.1296 30.5831 78.8979 30.741 78.6393 30.8394C78.3372 30.9514 78.0168 31.0058 77.6946 31C77.3717 31.0086 77.0504 30.9521 76.7499 30.8337C76.4988 30.7339 76.2761 30.5736 76.1018 30.367C75.9258 30.1547 75.797 29.9074 75.7239 29.6415C75.6412 29.3335 75.6012 29.0157 75.6049 28.6968C75.5998 28.3777 75.6405 28.0596 75.7258 27.7521C75.7973 27.4901 75.9264 27.2474 76.1037 27.0417C76.2805 26.841 76.5036 26.6867 76.7537 26.592C77.0556 26.4798 77.3763 26.4265 77.6984 26.4352C78.0203 26.4279 78.3408 26.4811 78.6431 26.592C78.8996 26.6868 79.13 26.8409 79.3157 27.0417C79.5042 27.2486 79.6437 27.4953 79.7238 27.7634C79.8173 28.0656 79.8626 28.3806 79.858 28.6968ZM79.2118 28.6968C79.2145 28.4354 79.1853 28.1746 79.1249 27.9202C79.0747 27.7028 78.9823 27.4974 78.8528 27.3156C78.7311 27.1487 78.5702 27.0144 78.3842 26.9245C78.1709 26.8275 77.9383 26.7803 77.704 26.7866C77.489 26.785 77.2745 26.8097 77.0654 26.8603C76.8943 26.8968 76.7339 26.9725 76.5969 27.0813C76.5246 27.1485 76.4695 27.2321 76.4363 27.3251C76.3881 27.4471 76.3527 27.5737 76.3304 27.703C76.304 27.8581 76.2857 28.0145 76.2757 28.1715C76.2624 28.3397 76.2568 28.5173 76.2568 28.6987C76.2553 28.9605 76.2793 29.2218 76.3286 29.479C76.3692 29.6984 76.4499 29.9085 76.5666 30.0987C76.676 30.2702 76.8276 30.4107 77.0069 30.5068C77.2205 30.6118 77.4567 30.6624 77.6946 30.6542C77.9209 30.6581 78.1468 30.634 78.3672 30.5824C78.5491 30.5347 78.7177 30.4461 78.8604 30.3236C78.9333 30.2562 78.9885 30.1718 79.021 30.0779C79.0678 29.9554 79.1038 29.8289 79.1287 29.7001C79.1583 29.5426 79.1791 29.3837 79.191 29.2239C79.2042 29.0425 79.2118 28.8706 79.2118 28.6968Z" fill="#8E8E93"></path><path d="M82.7241 29.0615H82.0988V30.9376H81.4941V26.4994C81.6831 26.4843 81.872 26.473 82.0988 26.4635C82.3255 26.4541 82.5333 26.4522 82.7468 26.4522C82.9737 26.4481 83.2001 26.4754 83.4194 26.5334C83.5922 26.5788 83.7533 26.6606 83.8918 26.7734C84.0146 26.8745 84.1106 27.0043 84.1714 27.1513C84.2342 27.3146 84.265 27.4884 84.2621 27.6633C84.2644 27.8307 84.2389 27.9974 84.1865 28.1564C84.1397 28.2924 84.0715 28.4199 83.9844 28.5343C83.9004 28.6413 83.7996 28.7338 83.6858 28.8083C83.5732 28.8838 83.4529 28.9472 83.3269 28.9972L83.7047 29.651C83.8184 29.8412 83.9446 30.0236 84.0826 30.197C84.1903 30.34 84.3175 30.4672 84.4605 30.5749C84.5778 30.6645 84.721 30.7136 84.8686 30.7147H84.9196V30.9036C84.8408 30.9317 84.759 30.9507 84.6759 30.9603C84.5765 30.9755 84.4761 30.9831 84.3755 30.983C84.247 30.9867 84.1189 30.9668 83.9976 30.9244C83.882 30.8746 83.7797 30.7982 83.6991 30.7015C83.5802 30.5628 83.4751 30.4128 83.3854 30.2537C83.2721 30.061 83.1329 29.8128 82.9679 29.5092L82.7241 29.0615ZM82.2858 28.7535C82.5072 28.7577 82.7285 28.7419 82.9471 28.7063C83.0843 28.6861 83.2164 28.6399 83.3363 28.5702C83.3798 28.5424 83.4182 28.5072 83.4497 28.4663C83.4879 28.4159 83.5179 28.3598 83.5385 28.3C83.5658 28.2197 83.5848 28.1367 83.5952 28.0525C83.6091 27.9365 83.6154 27.8198 83.6141 27.703C83.6181 27.5541 83.5931 27.4058 83.5404 27.2665C83.4961 27.1514 83.4225 27.0498 83.3269 26.9718C83.2277 26.8937 83.1131 26.8377 82.9906 26.8074C82.8435 26.7708 82.6924 26.753 82.5409 26.7545C82.4577 26.7545 82.3859 26.7545 82.3236 26.7545L82.0988 26.7734V28.7459L82.2858 28.7535Z" fill="#8E8E93"></path><path d="M89.443 26.7035C89.2719 26.7054 89.1041 26.751 88.9555 26.8357C88.7521 26.9563 88.5664 27.1044 88.4038 27.276C88.3452 27.3345 88.2829 27.4007 88.2149 27.4649L88.0032 27.6935L87.7784 27.9524L87.5649 28.1886C87.6783 28.3888 87.7935 28.5891 87.9107 28.7894C88.0278 28.9916 88.1468 29.1862 88.264 29.3732C88.3811 29.5603 88.5039 29.7341 88.6267 29.8985C88.7416 30.0496 88.868 30.1918 89.0046 30.3236C89.1171 30.4353 89.2443 30.5313 89.3825 30.6089C89.4975 30.6752 89.6276 30.711 89.7604 30.7128H89.8133V30.9017C89.7219 30.9265 89.6292 30.946 89.5355 30.9603C89.426 30.9753 89.3155 30.9822 89.2049 30.9811C89.0691 30.9806 88.9355 30.9469 88.8157 30.8829C88.6834 30.811 88.5624 30.7199 88.4567 30.6127C88.3332 30.4893 88.2201 30.356 88.1185 30.214C88.0089 30.0629 87.8993 29.8985 87.7935 29.7228C87.6877 29.547 87.58 29.3657 87.4742 29.1786C87.3684 28.9916 87.2607 28.8007 87.1492 28.6118C87.1303 28.6364 87.1001 28.6685 87.0623 28.7081L86.9471 28.8347L86.8375 28.9557C86.8016 28.9934 86.777 29.0218 86.7638 29.0388V30.9282H86.1592V26.49H86.7638V28.6193C86.8186 28.5513 86.8828 28.4739 86.9527 28.3851C87.0226 28.2963 87.1077 28.1961 87.1946 28.0998L87.4572 27.7918C87.546 27.686 87.6329 27.5858 87.7179 27.4895C87.803 27.3931 87.8804 27.3005 87.956 27.2212C88.0316 27.1418 88.0977 27.07 88.1449 27.0152C88.2372 26.922 88.3343 26.8337 88.4359 26.7507C88.515 26.6859 88.602 26.6313 88.6948 26.5882C88.7791 26.5495 88.868 26.5216 88.9593 26.5051C89.0636 26.4883 89.1691 26.4801 89.2748 26.4805C89.322 26.4773 89.3693 26.4773 89.4165 26.4805C89.4494 26.4841 89.4818 26.4917 89.5129 26.5032V26.6922L89.443 26.7035Z" fill="#8E8E93"></path><path d="M3.01807 23.6559C32.9671 23.5179 66.5645 23.516 96.5135 23.6559C66.5645 23.7957 32.9671 23.7938 3.01807 23.6559Z" fill="#8E8E93"></path><path d="M2.00894 22.4656L2.24701 23.2006H3.01978L2.39438 23.6521L2.63245 24.3871L2.00894 23.9336L1.38544 24.3871L1.6235 23.6521L1 23.2006H1.77088L2.00894 22.4656Z" fill="#8E8E93"></path><path d="M97.5221 22.4656L97.7602 23.2006H98.5311L97.9076 23.6521L98.1456 24.3871L97.5221 23.9336L96.8986 24.3871L97.1367 23.6521L96.5132 23.2006H97.2841L97.5221 22.4656Z" fill="#8E8E93"></path><path d="M14.7056 1.01514V3.43169H18.4126V20.5629H21.3336V3.43169H24.8989V1.01514H14.7056Z" fill="#040319"></path><path d="M27.4404 1.01703V20.5629H30.3633V1.01703H27.4404Z" fill="#040319"></path><path d="M74.6715 1.01514L70.3939 16.0926L66.8626 3.43358L66.2391 1.01703H63.2161L59.0348 16.0926L54.6722 1.01514H51.9155L57.5384 20.5611H60.2403L64.567 5.25686L68.9221 20.5611H71.6938L77.2052 1.01514H74.6715Z" fill="#040319"></path><path d="M50.0546 1.01703V20.5629H47.0542L37.7678 4.04386V20.5629H35.3777V3.43358H32.9668V1.01703H39.2132L47.7004 16.0586V1.01703H50.0546Z" fill="#040319"></path><path d="M86.9076 3.49971C88.3466 3.50008 89.7532 3.92713 90.9495 4.72687C92.1458 5.52661 93.0781 6.66311 93.6285 7.99268C94.1789 9.32224 94.3227 10.7852 94.0418 12.1965C93.7608 13.6078 93.0677 14.9041 92.05 15.9215C91.0324 16.9389 89.7359 17.6316 88.3245 17.9122C86.9131 18.1928 85.4502 18.0486 84.1208 17.4979C82.7914 16.9471 81.6551 16.0145 80.8557 14.818C80.0563 13.6215 79.6296 12.2148 79.6296 10.7758C79.6311 8.84653 80.3982 6.9967 81.7624 5.63249C83.1266 4.26828 84.9764 3.50121 86.9057 3.49971H86.9076ZM86.9076 1.01514C84.977 1.01476 83.0897 1.5869 81.4843 2.65919C79.879 3.73148 78.6276 5.25576 77.8886 7.03925C77.1495 8.82275 76.9559 10.7854 77.3323 12.6789C77.7087 14.5724 78.6382 16.3117 80.0032 17.677C81.3682 19.0422 83.1074 19.972 85.0008 20.3488C86.8942 20.7256 88.8569 20.5324 90.6405 19.7937C92.4242 19.055 93.9487 17.8039 95.0213 16.1987C96.0939 14.5936 96.6664 12.7064 96.6664 10.7758C96.6664 8.18745 95.6383 5.70507 93.8082 3.87464C91.9781 2.04421 89.496 1.01564 86.9076 1.01514Z" fill="#040319"></path><path d="M92.8213 2.16577C94.6106 2.3207 95.9767 2.98011 96.6002 4.15343C98.089 6.96298 94.7429 11.6544 89.1257 14.6283C83.5085 17.6022 77.7477 17.7364 76.2588 14.9268C75.6391 13.7535 75.862 12.2533 76.7387 10.687C75.3519 12.754 74.9079 14.8021 75.7336 16.3552C77.434 19.5521 83.8032 19.4954 89.974 16.2248C96.1448 12.9543 99.7763 7.72252 98.0833 4.51053C97.2558 2.9631 95.3116 2.18089 92.8213 2.16577Z" fill="#8E8E93"></path><path d="M8.26481 1.06043C6.68905 0.860158 5.32112 1.1612 4.16102 1.96357C3.00092 2.76594 2.32074 3.94934 2.12046 5.51377C1.9784 6.41012 2.10077 7.32844 2.47259 8.15632C2.84441 8.98419 3.44955 9.68569 4.21392 10.1749C4.96969 10.6788 6.15435 11.2595 7.7679 11.917C9.15346 12.4838 10.0837 12.9952 10.5586 13.4512C11.0334 13.9071 11.2117 14.5772 11.0933 15.4615C11.0563 15.8812 10.9262 16.2875 10.7124 16.6506C10.4987 17.0137 10.2066 17.3246 9.85758 17.5606C9.14191 18.0442 8.27014 18.2398 7.41647 18.1085C5.83567 17.907 4.61574 16.9623 3.75669 15.2744V12.5348H1.03027V15.2612H3.75102V18.8832C4.74453 19.7747 5.98765 20.3399 7.31255 20.5024C8.96767 20.714 10.4225 20.3721 11.6771 19.4765C12.2885 19.0486 12.8002 18.4936 13.1772 17.8495C13.5542 17.2055 13.7875 16.4875 13.8612 15.7449C14.0168 14.6938 13.8714 13.62 13.4418 12.6482C13.089 11.8037 12.5064 11.0751 11.7602 10.5453C11.0649 10.0805 9.92182 9.52876 8.33094 8.89014C7.49689 8.58133 6.68177 8.22361 5.88983 7.81884C5.49072 7.58846 5.16362 7.25154 4.94512 6.8458C4.71264 6.4266 4.6231 5.94307 4.69005 5.46842C4.73143 5.14428 4.84575 4.83374 5.02444 4.56016C5.20312 4.28657 5.44151 4.05706 5.72167 3.88888C6.32817 3.48832 7.13873 3.35418 8.15901 3.48265C8.89447 3.55726 9.60023 3.81195 10.2138 4.22421C10.8275 4.63647 11.33 5.19359 11.6771 5.8463V2.53984C10.7028 1.73331 9.51945 1.22025 8.26481 1.06043Z" fill="#040319"></path><path d="M14.4037 5.84253H11.6772V8.56894H14.4037V5.84253Z" fill="#040319"></path></svg>